<svg width="256" height="300" viewBox="0 0 256 300" fill="none" xmlns="http://www.w3.org/2000/svg">
<path d="M127.47 0C171.1 1.94967e-05 206.469 11.9457 206.47 26.6816C206.47 41.4177 171.1 53.3642 127.47 53.3643C83.8393 53.3643 48.4697 41.4177 48.4697 26.6816C48.4704 11.9457 83.8397 0 127.47 0ZM127.076 8.89355C92.3457 8.89362 64.1914 16.6922 64.1914 26.3115C64.1916 35.9308 92.3458 43.7285 127.076 43.7285C161.807 43.7285 189.962 35.9309 189.962 26.3115C189.962 16.6921 161.807 8.89355 127.076 8.89355Z" fill="#FFFF00"/>
<path d="M177.595 251H175.134C175.585 249.6 175.731 248.162 175.627 246.708L177.595 251ZM54.4365 130.368C44.4101 147.211 42.0439 183.16 73.6611 205.778L74.793 210.218L75.5127 207.055C80.3879 210.141 90.7379 215.502 101.846 218.641L95.9141 243.365C94.4267 239.638 93.1124 234.766 92.4697 228.5L44.4482 228.01L0 70.3604H39.1387L54.4365 130.368ZM159.771 204.472L156.97 206L170.175 234.811C165.537 228.906 158.902 223.669 154.12 220.598L149.645 201.7L159.771 204.472ZM213.929 217.465C209.12 201.149 195.504 191.601 187.872 187.921L194.007 164H212.47V160.5C211.975 147.648 206.104 133.168 203.071 128.653L218.021 70.3604H255.404L213.929 217.465ZM97.9697 188.5L113.352 170.688L104.389 208.043L81.0137 197.799L86.1582 191.811L81.8564 179.185L85.9658 161.131L97.9697 188.5ZM134.644 138.361C153.957 141.151 158.684 156.986 159.47 165H171.787L175.993 183.731C167.991 179.813 154.568 176.418 142.926 173.33L134.644 138.361ZM114.533 165.765C93.5962 158.521 102.871 135.525 121.606 136.282L114.533 165.765ZM164.546 132.759L132.015 127.261L131.476 124.984C143.353 124.811 154.034 123.101 161.779 120.438L164.546 132.759ZM95.376 119.79C100.952 121.946 108.336 123.565 116.743 124.39L93.4316 128.33L95.376 119.79ZM156.756 98.0723C149.186 96.1455 139.729 95 129.47 95C118.292 95 108.066 96.3588 100.197 98.6074L106.628 70.3604H150.533L156.756 98.0723Z" fill="white"/>
<path d="M132.629 299.423C107.499 299.423 87.3955 293.859 72.3178 282.73C57.24 271.422 48.4446 255.536 45.9316 235.073H85.7801C87.0365 245.484 92.0625 253.741 100.858 259.844C109.653 265.767 120.872 268.729 134.514 268.729C145.642 268.729 154.169 266.755 160.092 262.806C166.195 258.857 169.246 253.562 169.246 246.92C169.246 240.638 167.451 235.612 163.861 231.842C160.271 227.894 154.079 224.752 145.283 222.419L109.204 212.457C90.7162 207.251 77.1642 200.161 68.5483 191.186C60.1119 182.032 55.8937 170.634 55.8937 156.992C55.8937 145.325 58.8555 135.273 64.7789 126.837C70.8818 118.221 79.4079 111.669 90.3572 107.182C101.307 102.515 114.141 100.181 128.859 100.181C151.476 100.181 169.516 105.566 182.978 116.336C196.44 126.926 204.069 141.017 205.864 158.608H166.015C164.22 149.094 159.823 142.094 152.822 137.606C146.001 133.119 137.206 130.875 126.436 130.875C117.102 130.875 109.653 132.67 104.089 136.26C98.5244 139.85 95.7422 144.696 95.7422 150.799C95.7422 155.466 97.2679 159.774 100.319 163.723C103.371 167.493 109.743 170.724 119.436 173.416L155.515 183.378C174.541 188.584 188.183 195.763 196.44 204.918C204.877 213.893 209.095 225.291 209.095 239.112C209.095 258.498 202.364 273.396 188.901 283.807C175.439 294.218 156.682 299.423 132.629 299.423Z" fill="#51FF94"/>
</svg>
